<svg width="16" height="24" viewBox="0 0 16 24" fill="none" xmlns="http://www.w3.org/2000/svg">
<path d="M9.33333 6.375V0H1C0.445833 0 0 0.501562 0 1.125V22.875C0 23.4984 0.445833 24 1 24H15C15.5542 24 16 23.4984 16 22.875V7.5H10.3333C9.78333 7.5 9.33333 6.99375 9.33333 6.375ZM12.0492 16.5005H9.33333V20.2505C9.33333 20.6648 9.035 21.0005 8.66667 21.0005H7.33333C6.965 21.0005 6.66667 20.6648 6.66667 20.2505V16.5005H3.95083C3.35583 16.5005 3.05875 15.69 3.48125 15.218L7.49875 10.732C7.77583 10.4222 8.22333 10.4222 8.50042 10.732L12.5179 15.218C12.9408 15.69 12.6442 16.5005 12.0492 16.5005ZM15.7083 4.92188L11.6292 0.328125C11.4417 0.117188 11.1875 0 10.9208 0H10.6667V6H16V5.71406C16 5.41875 15.8958 5.13281 15.7083 4.92188Z" fill="#D2D2D2"/>
</svg>
